<?xml version="1.0" encoding="UTF-8"?>
<!DOCTYPE svg PUBLIC "-//W3C//DTD SVG 1.1//EN" "http://www.w3.org/Graphics/SVG/1.1/DTD/svg11.dtd">
<!-- Creator: CorelDRAW X8 -->
<svg xmlns="http://www.w3.org/2000/svg" xml:space="preserve" width="20.5mm" height="23mm" version="1.1" style="shape-rendering:geometricPrecision; text-rendering:geometricPrecision; image-rendering:optimizeQuality; fill-rule:evenodd; clip-rule:evenodd"
viewBox="0 0 2050 2300"
 xmlns:xlink="http://www.w3.org/1999/xlink"
 enable-background="new 0 0 150 150">
 <defs>
  <style type="text/css">
   <![CDATA[
    .fil0 {fill:#DDC190}
   ]]>
  </style>
 </defs>
 <g id="Capa_x0020_1">
  <metadata id="CorelCorpID_0Corel-Layer"/>
  <path class="fil0" d="M1070 1923c-20,10 -62,24 -85,30 6,-26 51,-53 51,-81 0,-16 -23,-67 -72,-4 -12,15 -23,29 -35,42 0,-36 8,-63 9,-94 47,0 74,-28 102,-47 23,12 34,27 56,39 -9,37 -26,30 -26,115zm605 -995c19,13 85,62 95,77 -7,11 -20,32 -30,39 -15,-4 -85,-65 -102,-77l37 -39zm125 -119c53,0 75,52 37,101 -10,13 -16,24 -24,36 -16,-4 -36,-23 -48,-33 -17,-14 -29,-24 -46,-36 11,-17 54,-68 81,-68zm-679 687c0,24 36,57 67,11 64,-96 64,-97 139,-189l28 -32c39,-47 152,-167 182,-206l58 -62c37,25 69,56 107,81 -10,19 -18,27 -29,44l-159 225c-64,90 -68,92 -132,172l-114 115c-30,25 -89,96 -117,114 -17,-11 -71,-53 -81,-68 21,-39 38,-50 38,-81 0,-20 -21,-26 -38,-26 -16,0 -61,63 -68,108 -6,37 -55,46 -88,52 -46,8 -45,48 -49,109 -5,79 -42,188 30,188 18,0 163,-51 197,-63 79,-28 27,-46 52,-123 15,-47 20,-21 51,-44l96 -95c9,-9 14,-15 23,-24 23,-22 40,-28 72,-69l90 -102c57,-72 105,-145 160,-220l78 -110c13,-20 63,-97 82,-110l40 32c12,11 22,15 -5,46 -24,28 -142,177 -142,186 0,29 9,39 38,39 17,0 132,-152 150,-175 13,-17 38,-44 38,-73 0,-31 -11,-54 -29,-69l-56 -42c27,-41 94,-115 94,-162 0,-26 -1,-38 -12,-61 -31,-65 -109,-93 -176,-49 -21,14 -28,26 -44,45l-85 94c-11,10 -12,13 -20,23l-85 94c-11,11 -12,15 -21,26l-170 189c-8,11 -12,13 -20,22 -9,10 -11,15 -21,26 -22,23 -149,189 -149,214z"/>
  <path class="fil0" d="M255 1902c-19,-40 -6,-115 25,-115 34,0 100,18 57,61 -16,15 -59,48 -82,54zm-77 -47c0,51 10,52 17,81 -12,3 -28,10 -40,15 -46,19 -30,66 2,66 23,0 64,-21 81,-30 60,40 145,37 208,12 73,-30 17,23 178,38 9,0 59,0 74,-12 4,-4 14,-17 14,-21 0,-73 -88,-8 -163,-51 -29,-17 -32,-30 -76,-30 -26,0 -48,15 -70,20 -28,7 -54,6 -88,6 5,-5 -2,1 7,-6 3,-2 4,-3 7,-5 64,-44 140,-114 50,-186 -91,-73 -201,-22 -201,103z"/>
 </g>
</svg>
