<?xml version="1.0" encoding="UTF-8"?>
<!DOCTYPE svg PUBLIC "-//W3C//DTD SVG 1.1//EN" "http://www.w3.org/Graphics/SVG/1.1/DTD/svg11.dtd">
<!-- Creator: CorelDRAW X8 -->
<svg xmlns="http://www.w3.org/2000/svg" xml:space="preserve" width="210mm" height="210mm" version="1.1" style="shape-rendering:geometricPrecision; text-rendering:geometricPrecision; image-rendering:optimizeQuality; fill-rule:evenodd; clip-rule:evenodd"
viewBox="0 0 21000 21000"
 xmlns:xlink="http://www.w3.org/1999/xlink">
 <defs>
  <style type="text/css">
   <![CDATA[
    .fil0 {fill:#DDC190}
   ]]>
  </style>
 </defs>
 <g id="Capa_x0020_1">
  <metadata id="CorelCorpID_0Corel-Layer"/>
  <g id="_2716434254352">
   <path class="fil0" d="M2522 16520l1082 706c188,119 363,218 561,330 113,63 169,112 291,172 117,59 213,85 290,173 -177,57 -456,265 -637,368l-1320 763c-200,122 -456,315 -725,250 -656,-158 -209,-973 -66,-1324l524 -1438zm1414 -3609c20,-140 97,-288 148,-412l474 -1313 860 373c904,454 2961,981 4009,902 228,-17 425,19 607,-24 306,-72 273,-99 483,87 247,219 1259,1038 1379,1188l-2603 1524c-325,27 -1463,-353 -1557,-345 -62,5 -198,96 -236,136 -144,152 -181,498 256,633 150,46 352,106 527,132 -85,139 -841,514 -1017,616l-1758 1030c-119,-66 -221,-115 -349,-182l-1996 -1214c-70,-50 -81,-49 -150,-101 -103,-77 -49,-77 -183,-102 0,-162 125,-398 185,-548 81,-199 128,-365 209,-563 84,-208 382,-937 407,-1101l859 533c618,383 962,-281 445,-604l-661 -410c-99,-69 -275,-161 -338,-235zm1703 -4506l3919 3307c-187,21 -505,0 -696,-12 -196,-12 -430,-41 -644,-72 -1620,-232 -3190,-1098 -3352,-1122 0,-154 480,-1328 575,-1563 76,-187 124,-364 198,-538zm-4676 10389l20 253c42,508 666,1037 1174,995 620,-51 738,-202 1277,-530l5613 -3274c215,-130 447,-250 660,-381 228,-139 425,-268 680,-399l2294 -1348c317,-187 305,-458 84,-669 -41,-39 -74,-65 -117,-100 -6,-4 -15,-11 -21,-15 -6,-5 -14,-11 -20,-16 -6,-5 -14,-11 -20,-16l-174 -152c-21,-17 -43,-35 -60,-48l-191 -171c-6,-5 -14,-12 -19,-17l-75 -70c-48,-45 -65,-59 -118,-99l-1155 -977c-73,-61 -55,-40 -127,-88l-233 -200c-47,-40 -70,-57 -118,-100l-346 -306c-13,-11 -36,-32 -57,-50l-606 -515c-6,-5 -14,-12 -20,-16l-3260 -2776c-49,-42 -70,-59 -120,-96 -157,-116 -449,-364 -692,-105 -75,80 -183,407 -227,514l-1767 4620c-53,131 -83,246 -137,388l-1767 4620c-117,286 -378,866 -355,1144z"/>
   <path class="fil0" d="M14340 9131c-139,-321 170,-846 961,-337 -58,89 -213,755 -695,571 -78,-30 -225,-141 -266,-234zm4251 -2318c501,-217 856,538 365,751 -241,104 -523,-115 -738,-154 40,-221 141,-496 373,-597zm-3709 1016c1081,-802 1581,-327 2972,223l768 289c-959,711 -1378,406 -2209,79l-1531 -591zm-1236 1524c174,400 303,549 689,700 774,303 1495,-238 1633,-996 382,70 1248,803 2487,266 695,-302 980,-747 1218,-1228 39,-79 49,-77 88,-159 561,-1187 -430,-2274 -1506,-1807 -557,242 -617,787 -753,998l-534 -253c-1350,-568 -2657,18 -3226,1360 -136,322 -252,758 -96,1119z"/>
   <path class="fil0" d="M8384 6657c0,-215 264,-453 399,-544 92,138 672,533 338,882 -250,261 -737,101 -737,-338zm323 -5511l277 0c240,32 478,149 697,371 573,581 353,1452 -282,1877 240,358 1233,796 1233,2212 0,948 -501,1477 -1042,1967 -699,634 -1967,157 -1967,-916 0,-594 496,-909 616,-1088l-463 -407c-444,-407 -770,-1036 -770,-1732 0,-529 210,-1135 535,-1495 51,-56 76,-73 123,-131 293,-364 663,-609 1043,-658zm-939 2429c0,-421 -20,-292 72,-689l1133 1151c658,661 1097,911 825,2076l-553 -571c-202,-202 -378,-378 -580,-580 -350,-351 -897,-715 -897,-1387zm652 -1269c0,-610 834,-524 834,0 0,258 -208,453 -398,580 -101,-150 -436,-380 -436,-580z"/>
   <path class="fil0" d="M11680 11200c0,377 677,548 748,23 67,-503 -748,-591 -748,-23z"/>
   <path class="fil0" d="M12403 2207c0,430 762,521 762,-37 0,-183 -209,-360 -395,-351 -64,3 -197,54 -249,106 -45,46 -118,212 -118,282z"/>
   <path class="fil0" d="M11226 8266c0,-426 -552,-548 -715,-169 -64,149 -30,312 71,414 246,245 644,15 644,-245z"/>
   <path class="fil0" d="M14422 5118c165,0 363,-172 363,-326 0,-391 -375,-533 -616,-327 -248,213 -122,653 253,653z"/>
   <path class="fil0" d="M12445 7435c0,391 375,533 616,327 248,-212 122,-653 -253,-653 -165,0 -363,172 -363,326z"/>
   <path class="fil0" d="M5804 14607c0,565 725,513 725,0 0,-438 -725,-438 -725,0z"/>
   <path class="fil0" d="M16516 3347c0,506 725,570 725,0 0,-438 -725,-438 -725,0z"/>
  </g>
 </g>
</svg>
