<?xml version="1.0" encoding="UTF-8"?>
<!DOCTYPE svg PUBLIC "-//W3C//DTD SVG 1.1//EN" "http://www.w3.org/Graphics/SVG/1.1/DTD/svg11.dtd">
<!-- Creator: CorelDRAW X8 -->
<svg xmlns="http://www.w3.org/2000/svg" xml:space="preserve" width="40mm" height="5mm" version="1.1" style="shape-rendering:geometricPrecision; text-rendering:geometricPrecision; image-rendering:optimizeQuality; fill-rule:evenodd; clip-rule:evenodd"
viewBox="0 0 4000 500"
 xmlns:xlink="http://www.w3.org/1999/xlink">
 <defs>
  <style type="text/css">
   <![CDATA[
    .fil1 {fill:#486A59}
    .fil0 {fill:#DDC190}
    .fil2 {fill:black}
   ]]>
  </style>
 </defs>
 <g id="Capa_x0020_1">
  <metadata id="CorelCorpID_0Corel-Layer"/>
  <g id="_2716392685648">
   <path class="fil0" d="M2184 263c-48,-39 -113,34 -45,105 182,193 586,-126 865,-190 94,-21 338,-38 397,26 -23,26 -65,53 -70,103 -12,107 157,130 198,35 30,-68 -31,-107 -25,-133 109,-13 217,37 331,18 159,-25 105,-196 15,-183 3,34 55,49 22,100 -17,27 -63,40 -108,40 -102,1 -174,-31 -285,-11 -69,13 -171,-128 -517,-37 -229,60 -445,245 -659,257 -47,2 -94,-5 -124,-29 -58,-47 6,-78 5,-101z"/>
   <path class="fil0" d="M488 209c6,26 -52,62 -27,129 36,100 207,75 201,-25 -4,-57 -46,-80 -72,-109 62,-63 297,-48 393,-27 121,26 231,83 337,132 136,64 398,195 531,63 72,-73 5,-149 -43,-108 -2,19 61,51 8,97 -85,75 -281,1 -362,-36 -218,-96 -403,-239 -691,-217 -147,12 -200,71 -240,67 -189,-19 -132,3 -278,9 -45,2 -93,-7 -117,-30 -50,-48 11,-76 13,-111 -92,-9 -136,152 6,182 114,25 231,-31 341,-16z"/>
   <path class="fil1" d="M544 229c-20,25 -44,45 -34,89 7,28 37,56 78,50 65,-9 45,-111 -44,-139z"/>
   <path class="fil1" d="M3446 230c-69,19 -120,128 -42,138 39,6 71,-21 78,-50 9,-44 -16,-69 -36,-88z"/>
   <path class="fil2" d="M1984 117c0,0 0,0 0,0z"/>
   <path class="fil0" d="M2094 133c-57,-4 -59,32 -93,52 -40,-114 -212,-26 -45,135 23,22 42,37 69,10 42,-39 143,-155 69,-197z"/>
   <path class="fil1" d="M2010 257c-57,-6 -20,-59 -67,-83 -7,55 20,114 55,138 29,-12 91,-93 85,-153 -43,14 -51,64 -61,83 -1,1 -2,3 -3,4l-9 11z"/>
  </g>
 </g>
</svg>
