<?xml version="1.0" encoding="utf-8"?>
<!-- Generator: Adobe Illustrator 16.0.0, SVG Export Plug-In . SVG Version: 6.00 Build 0)  -->
<!DOCTYPE svg PUBLIC "-//W3C//DTD SVG 1.1//EN" "http://www.w3.org/Graphics/SVG/1.1/DTD/svg11.dtd">
<svg version="1.1" id="Capa_1" xmlns="http://www.w3.org/2000/svg" xmlns:xlink="http://www.w3.org/1999/xlink" x="0px" y="0px"
	 width="1683.781px" height="2383.941px" viewBox="0 0 1683.781 2383.941" enable-background="new 0 0 1683.781 2383.941"
	 xml:space="preserve">
<g id="stemware_1_">
	<path d="M824.756,749.017c65.819-5.004,186.854-34.708,225.078,27.979c-22.522,171.383,3.041,401.823-38.778,590.22
		c-11.689,52.729-52.833,76.381-92.985,95.883c-8.65,108.051-18.863,231.244-8.733,329.529
		c49.339,4.707,117.667,23.18,116.536,68.277c-2.671,105.252-168.021,41.838-251.319,32.057
		c-20.683-2.385-47.438,11.59-69.559,12.246c-65.44,1.891-195.128-1.314-214.846-39.414
		c-35.816-69.303,56.316-133.146,127.067-112.004c-1.643-58.771,11.416-131.518,11.632-207.016
		c0.146-47.404,3.155-118.855-10.665-150.219c-4.408-10.008-29.603-17.055-43.658-28.09
		c-96.14-75.559-62.603-337.153-59.951-491.417c1.006-57.805-4.285-148.325,20.179-186.353
		c21.085-32.755,115.704-28.812,165.957-23.346C761.957,674.032,813.854,690.963,824.756,749.017z M594.931,698.999
		c42.097,13.758,124.816,33.496,164.067,10.563C718.568,686.331,633.368,680.167,594.931,698.999z M547.853,719.045
		c-10.953,12.729-4.89,46.564-6.092,72.981c-4.595,99.849-9.937,203.962-8.796,313.347c0.708,65.986,1.479,168.937,28.81,215.031
		c19.604,33.045,104.207,73.689,155.375,74.283c42.998,0.494,60.918-57.373,68.531-102.148
		c32.066-188.687,7.941-384.397,5.56-548.946C714.076,749.428,617.711,733.347,547.853,719.045z M846.928,776.583
		c42.438,13.491,126.03,17.715,151.204-3.399C953.704,752.583,877.917,754.493,846.928,776.583z M827.51,806.791
		c-19.245,160.43,11.21,352.628-23.796,518.238c-4.275,20.139-22.697,45.063-21.505,65.879
		c3.943,69.049,132.82,60.252,171.021,29.307c15.598-12.6,29.446-41.182,34.336-68.104
		c31.071-171.403,28.608-390.458,28.051-541.106C955.532,808.537,891.089,813.768,827.51,806.791z M702.232,1416.433
		c-17.15,57.186-5.375,143.988-12.219,212.375c-3.801,37.914-21.227,122.045-1.367,145.328
		c37.205,43.586,105.912,1.477,166.668,19.85c9.369-110.742,11.115-229.352-6.227-323.98
		C791.919,1449.248,772.962,1392.676,702.232,1416.433z M655.264,1402.314c-0.738,2.465-4.108,1.605-5.703,3
		c6.504,120.646-20.402,282.164,4.061,393.729C660.454,1681.086,690.63,1502.533,655.264,1402.314z M885.562,1547.597
		c6.699-24.395,6.041-56.613,3.124-78.684C861.129,1476.969,882.068,1528.486,885.562,1547.597z M794.425,1875.371
		c16.224,20.549,135.113,31.439,168.238,21.824c73.177-21.328,21.944-99.762-44.595-85.703
		c-7.438,23.568-21.657,49.535-45.823,41.77c-14.375-4.605-5.591-21.115-16.07-34.043c-14.764-18.289-65.142-17.016-80.449-3.369
		C789.822,1830.562,782.146,1859.877,794.425,1875.371z M513.381,1850.342c32.622,36.619,242.883,49.318,251.01,3.82
		c5.662-31.738-43.473-50.025-71.336-54.465c-7.634,45.754-98.38,39.168-75.189-18.93
		C562.772,1761.681,505.336,1784.326,513.381,1850.342z"/>
	<path d="M639.152,1003.715c25.738-12.288,94.649-36.435,96.429,5.035c1.355,31.133-41.191,62.141-55.565,81.992
		c-22.182,30.64-26.539,93.191-56.652,42.331c-16.871-28.479-95.987-101.082-55.248-153.194
		C585.776,957.234,632.146,977.577,639.152,1003.715z M647.157,1045.842c-30.979,5.321-25.521-40.216-52.369-46.936
		c-19.225,40.627,7.932,96.273,43.288,114.234c22.191-32.858,50.016-58.67,64.779-100.734
		C671.097,990.462,665.303,1042.759,647.157,1045.842z"/>
	<path d="M933.484,1055.295c21.063-6.452,64.319-27.824,69.209,7.5c4.479,32.264-48.127,119.373-66.702,118.509
		c-17.181-0.739-86-97.139-82.344-118.468C859.423,1029.258,911.967,1024.347,933.484,1055.295z M928.675,1099.682
		c-10.479-0.74-38.881-63.189-45.621-26.487c-3.061,16.789,40.688,68.53,53.819,66.929c16.953-2.054,25.791-49.585,28.604-65.182
		C943.018,1072.7,947.416,1101.078,928.675,1099.682z"/>
</g>
<path d="M1213.572,617.06c17.988-3.563,41.93-0.763,45.557,18.562c10.879,58.041-67.355,86.015-82.705,123.235
	c-20.766,50.434-22.777,11.289-40.514-21.942c-9.756-18.263-42.525-86.759,0-94.529c13.256-2.42,16.539,10.328,30.395,8.435
	C1185.717,648.16,1190.25,621.694,1213.572,617.06z M1179.842,676.143c-14.898,3.927-23.605-12.249-42.229-10.119
	c-14.906,26.215,3.572,63.826,23.629,75.95c27.121-34.212,74.381-48.276,79.314-104.648
	C1209.547,617.176,1189.961,654.318,1179.842,676.143z"/>
<path d="M920.721,615.736c-29.434-14.171-103.75-108.038-45.574-131.658c14.021-5.693,21.582,3.428,33.75,1.678
	c20.059-2.865,55.803-52.591,79.359-13.49C1023.781,531.336,916.023,558.049,920.721,615.736z M915.68,514.452
	c-11.916,3.229-18.408-13.211-28.725-11.814c-34.77,4.743-4.717,77.228,27.02,77.644c13.313-35.971,78.613-56.171,54.006-102.959
	C935.174,456.412,931.547,510.164,915.68,514.452z"/>
<path d="M1277.08,338.164c15.521-14.438,63.436-33.731,67.5,3.372c3.807,34.837-61.371,66.609-72.576,96.215
	c-7.184,18.924-6.641,64.069-28.691,21.942c-12.004-22.858-40.584-55.075-43.922-79.321
	C1191.121,319.966,1242.08,290.931,1277.08,338.164z"/>
<path fill="#FFFFFF" d="M1216.291,385.432c3.338,18.534,20.133,41.093,37.104,50.634c18.461-36.144,53.355-55.864,72.576-91.155
	c-17.301-19.341-35.617,9.085-40.512,23.639C1259.561,338.698,1203.199,312.475,1216.291,385.432z"/>
</svg>
