<?xml version="1.0" standalone="no"?>
<!DOCTYPE svg PUBLIC "-//W3C//DTD SVG 20010904//EN"
 "http://www.w3.org/TR/2001/REC-SVG-20010904/DTD/svg10.dtd">
<svg version="1.0" xmlns="http://www.w3.org/2000/svg"
 width="512.000000pt" height="512.000000pt" viewBox="0 0 512.000000 512.000000"
 preserveAspectRatio="xMidYMid meet">
<metadata>
Created by potrace 1.16, written by Peter Selinger 2001-2019
</metadata>
<g transform="translate(0.000000,512.000000) scale(0.100000,-0.100000)"
fill="#000000" stroke="none">
<path d="M2370 2600 c-101 -24 -331 -30 -1213 -30 -728 0 -938 -3 -935 -12 3
-9 54 -12 196 -10 112 1 193 -2 197 -7 3 -5 15 -7 28 -4 12 3 36 6 52 8 l30 2
-30 -6 c-47 -9 446 -17 790 -11 250 3 284 5 175 10 -105 4 -72 6 145 8 292 2
456 -6 400 -19 -29 -6 -29 -7 8 -8 23 -1 36 3 32 9 -10 16 11 12 25 -5 15 -18
55 -21 44 -3 -5 8 0 9 17 5 13 -4 33 -7 44 -8 17 -1 16 -2 -5 -9 -25 -8 -25
-8 -2 -9 13 -1 34 11 48 26 l24 26 24 -22 24 -23 7 22 c6 18 9 19 23 8 13 -11
15 -11 7 2 -4 8 3 4 17 -8 26 -24 26 -24 33 -3 6 19 8 19 21 6 9 -8 19 -15 24
-15 5 0 16 -3 25 -6 9 -4 15 -3 14 2 -3 20 2 34 12 34 5 0 7 -6 3 -12 -6 -10
-5 -10 8 0 12 10 17 10 27 -1 6 -8 8 -17 4 -21 -4 -4 6 -2 22 4 21 8 31 8 33
1 2 -6 17 -11 33 -11 20 0 28 4 23 12 -5 8 0 9 14 6 12 -4 25 -2 28 3 3 5 10
9 15 9 6 0 7 -4 4 -10 -7 -12 88 -14 99 -2 4 4 12 8 17 8 5 1 10 2 12 4 9 7
334 8 382 0 99 -15 1135 -15 1080 1 -28 8 -28 8 5 3 19 -3 46 -4 60 -3 14 1
96 2 183 3 118 1 157 4 157 14 0 9 -191 12 -922 12 -858 0 -1058 5 -1198 28
-44 8 -98 -6 -83 -21 3 -4 1 -7 -5 -7 -7 0 -12 4 -12 10 0 5 -10 14 -21 21
-15 8 -19 8 -15 0 4 -7 -1 -11 -13 -11 -12 0 -21 -5 -21 -12 0 -6 -6 -3 -14 7
-14 19 -15 19 -37 0 -12 -11 -19 -14 -15 -7 4 6 3 12 -3 12 -5 0 -12 -6 -14
-12 -4 -10 -6 -10 -6 -1 -1 7 -11 17 -22 24 -12 6 -19 7 -15 1 3 -5 -2 -16
-11 -23 -12 -10 -14 -10 -9 -1 4 6 2 12 -3 12 -6 0 -11 -5 -11 -11 0 -8 -5 -8
-15 1 -8 7 -12 16 -9 21 3 5 4 9 2 8 -2 -1 -19 -5 -38 -9z"/>
</g>
</svg>
