<?xml version="1.0" standalone="no"?>
<!DOCTYPE svg PUBLIC "-//W3C//DTD SVG 20010904//EN"
 "http://www.w3.org/TR/2001/REC-SVG-20010904/DTD/svg10.dtd">
<svg version="1.0" xmlns="http://www.w3.org/2000/svg"
 width="512.000000pt" height="512.000000pt" viewBox="0 0 512.000000 512.000000"
 enable-background="new 0 0 150 150"
 preserveAspectRatio="xMidYMid meet">

<g transform="translate(0.000000,512.000000) scale(0.100000,-0.100000)"
fill="#000000" stroke="none">
<path d="M2285 2580 c-33 -5 -177 -10 -320 -12 -390 -5 -433 -14 -74 -16 174
-1 353 -7 399 -13 64 -9 91 -9 121 1 30 10 42 10 53 1 11 -10 19 -9 35 1 17
10 25 10 41 0 16 -10 24 -10 40 0 16 10 24 10 41 0 15 -10 24 -11 32 -3 14 14
50 14 63 1 6 -6 44 -7 109 0 55 5 257 10 449 10 192 0 347 3 344 6 -3 3 -154
7 -334 10 -181 3 -380 9 -443 15 -81 8 -116 8 -124 0 -14 -14 -50 -14 -64 0
-8 8 -17 7 -32 -3 -17 -10 -25 -10 -41 0 -16 10 -24 10 -40 0 -16 -10 -24 -10
-41 0 -15 10 -24 11 -32 3 -14 -14 -54 -14 -62 -1 -7 11 -32 11 -120 0z"/>
</g>
</svg>
